<svg xmlns="http://www.w3.org/2000/svg" xmlns:xlink="http://www.w3.org/1999/xlink" width="500" zoomAndPan="magnify" viewBox="0 0 375 149.999998" height="200" preserveAspectRatio="xMidYMid meet" version="1.0"><defs><g/><clipPath id="02d9fd94ab"><path d="M 15 26 L 104.25 26 L 104.25 101.738281 L 15 101.738281 Z M 15 26 " clip-rule="nonzero"/></clipPath></defs><g fill="#38b6ff" fill-opacity="1"><g transform="translate(104.22656, 96.749996)"><g><path d="M 42.59375 -38.34375 L 42.59375 0 L 33.390625 0 L 33.390625 -21.46875 L 22 -14.21875 L 10.96875 -21.40625 L 10.96875 0 L 1.765625 0 L 1.765625 -38.34375 L 22.125 -25.1875 Z M 42.59375 -38.34375 "/></g></g></g><g fill="#38b6ff" fill-opacity="1"><g transform="translate(148.57104, 96.749996)"><g><path d="M 30.375 -30.4375 L 18.40625 1.359375 C 17.101562 4.503906 15.035156 7 12.203125 8.84375 C 9.378906 10.695312 6.296875 11.582031 2.953125 11.5 L 2.953125 3.25 C 4.171875 3.28125 5.390625 3.023438 6.609375 2.484375 C 8.335938 1.691406 9.632812 0.453125 10.5 -1.234375 L 12.15625 -5.78125 L 1.765625 -30.4375 L 10.859375 -30.4375 L 16.34375 -17.171875 L 21.234375 -30.4375 Z M 30.375 -30.4375 "/></g></g></g><g fill="#38b6ff" fill-opacity="1"><g transform="translate(180.767961, 96.749996)"><g><path d="M 33.796875 -25.25 C 33.796875 -22.769531 33.164062 -20.46875 31.90625 -18.34375 C 30.375 -15.820312 28.210938 -14.070312 25.421875 -13.09375 L 33.6875 0 L 23.359375 0 L 15.328125 -12.203125 L 10.96875 -12.203125 L 10.96875 0 L 1.765625 0 L 1.765625 -38.34375 L 20.109375 -38.34375 C 24.472656 -38.34375 27.9375 -36.90625 30.5 -34.03125 C 32.695312 -31.519531 33.796875 -28.59375 33.796875 -25.25 Z M 10.96875 -30.078125 L 10.96875 -20.46875 L 20.046875 -20.46875 C 21.304688 -20.46875 22.3125 -20.644531 23.0625 -21 C 23.6875 -21.351562 24.140625 -21.6875 24.421875 -22 C 24.816406 -22.46875 25.109375 -23.019531 25.296875 -23.65625 C 25.460938 -24.207031 25.546875 -24.738281 25.546875 -25.25 C 25.546875 -25.800781 25.460938 -26.347656 25.296875 -26.890625 C 25.066406 -27.523438 24.734375 -28.078125 24.296875 -28.546875 C 23.429688 -29.566406 22.035156 -30.078125 20.109375 -30.078125 Z M 10.96875 -30.078125 "/></g></g></g><g fill="#38b6ff" fill-opacity="1"><g transform="translate(216.326102, 96.749996)"><g><path d="M 31.03125 -13.859375 C 31.0625 -13.035156 31.0625 -12.546875 31.03125 -12.390625 L 8.84375 -12.453125 C 9.15625 -11.546875 9.726562 -10.675781 10.5625 -9.84375 C 12.09375 -8.394531 13.859375 -7.671875 15.859375 -7.671875 C 17.984375 -7.742188 19.753906 -8.488281 21.171875 -9.90625 L 21.40625 -10.140625 L 29.078125 -7.734375 C 27.390625 -5.097656 25.617188 -3.207031 23.765625 -2.0625 C 21.679688 -0.726562 19.066406 -0.0390625 15.921875 0 C 11.753906 0.0390625 8.175781 -1.410156 5.1875 -4.359375 C 2.195312 -7.304688 0.6875 -10.882812 0.65625 -15.09375 C 0.613281 -19.269531 2.066406 -22.847656 5.015625 -25.828125 C 7.960938 -28.816406 11.539062 -30.332031 15.75 -30.375 C 19.914062 -30.414062 23.492188 -28.960938 26.484375 -26.015625 C 29.472656 -23.066406 30.988281 -19.488281 31.03125 -15.28125 Z M 15.8125 -22.65625 C 13.726562 -22.65625 11.957031 -21.925781 10.5 -20.46875 C 9.75 -19.644531 9.21875 -18.816406 8.90625 -17.984375 L 22.765625 -17.984375 C 22.453125 -18.816406 21.898438 -19.664062 21.109375 -20.53125 C 19.617188 -21.945312 17.851562 -22.65625 15.8125 -22.65625 Z M 15.8125 -22.65625 "/></g></g></g><g fill="#38b6ff" fill-opacity="1"><g transform="translate(247.992303, 96.749996)"><g><path d="M 17.578125 -30.375 C 21.742188 -30.414062 25.320312 -28.960938 28.3125 -26.015625 C 31.300781 -23.066406 32.816406 -19.488281 32.859375 -15.28125 C 32.890625 -11.113281 31.429688 -7.535156 28.484375 -4.546875 C 25.535156 -1.554688 21.957031 -0.0390625 17.75 0 C 14.332031 0 11.757812 -1.082031 10.03125 -3.25 L 10.03125 11.328125 L 1.765625 11.328125 L 1.765625 -30.3125 L 10.03125 -30.3125 L 10.03125 -27.125 C 11.644531 -29.21875 14.160156 -30.300781 17.578125 -30.375 Z M 23 -9.90625 C 24.5 -11.40625 25.207031 -13.175781 25.125 -15.21875 C 25.125 -17.300781 24.394531 -19.070312 22.9375 -20.53125 C 21.445312 -21.945312 19.679688 -22.65625 17.640625 -22.65625 C 15.554688 -22.65625 13.785156 -21.925781 12.328125 -20.46875 C 10.867188 -18.9375 10.140625 -17.164062 10.140625 -15.15625 C 10.222656 -13.03125 10.972656 -11.257812 12.390625 -9.84375 C 13.835938 -8.394531 15.601562 -7.671875 17.6875 -7.671875 C 19.8125 -7.742188 21.582031 -8.488281 23 -9.90625 Z M 23 -9.90625 "/></g></g></g><g fill="#38b6ff" fill-opacity="1"><g transform="translate(281.781383, 96.749996)"><g><path d="M 15.75 -30.375 C 19.957031 -30.414062 23.535156 -28.960938 26.484375 -26.015625 C 29.472656 -23.023438 30.96875 -19.445312 30.96875 -15.28125 C 31.007812 -11.070312 29.554688 -7.492188 26.609375 -4.546875 C 23.648438 -1.554688 20.085938 -0.0390625 15.921875 0 C 11.710938 0.0390625 8.113281 -1.410156 5.125 -4.359375 C 2.144531 -7.304688 0.65625 -10.882812 0.65625 -15.09375 C 0.613281 -19.300781 2.066406 -22.878906 5.015625 -25.828125 C 7.960938 -28.816406 11.539062 -30.332031 15.75 -30.375 Z M 21.109375 -9.90625 C 22.566406 -11.363281 23.296875 -13.132812 23.296875 -15.21875 C 23.296875 -17.257812 22.550781 -19.03125 21.0625 -20.53125 C 19.5625 -21.945312 17.789062 -22.65625 15.75 -22.65625 C 13.707031 -22.65625 11.957031 -21.925781 10.5 -20.46875 C 9.039062 -18.9375 8.3125 -17.164062 8.3125 -15.15625 C 8.3125 -13.113281 9.0625 -11.34375 10.5625 -9.84375 C 12.007812 -8.394531 13.773438 -7.671875 15.859375 -7.671875 C 17.984375 -7.742188 19.734375 -8.488281 21.109375 -9.90625 Z M 21.109375 -9.90625 "/></g></g></g><g fill="#38b6ff" fill-opacity="1"><g transform="translate(313.388612, 96.749996)"><g><path d="M 10.03125 -25.828125 C 10.695312 -27.722656 11.816406 -29.039062 13.390625 -29.78125 C 14.921875 -30.53125 17.222656 -30.90625 20.296875 -30.90625 L 20.296875 -22.46875 C 17.304688 -22.46875 14.804688 -21.445312 12.796875 -19.40625 C 10.953125 -17.59375 10.03125 -15.609375 10.03125 -13.453125 L 10.03125 0 L 1.765625 0 L 1.765625 -30.375 L 10.03125 -30.375 Z M 10.03125 -25.828125 "/></g></g></g><g fill="#38b6ff" fill-opacity="1"><g transform="translate(334.558395, 96.749996)"><g><path d="M 23.65625 -30.375 L 23.65625 -22.125 L 16.875 -22.125 L 16.875 0 L 8.609375 0 L 8.609375 -22.125 L 1.765625 -22.125 L 1.765625 -30.375 L 8.609375 -30.375 L 8.609375 -41 L 16.875 -41 L 16.875 -30.375 Z M 23.65625 -30.375 "/></g></g></g><g clip-path="url(#02d9fd94ab)"><path fill="#00bf63" d="M 103.777344 60.539062 C 103.507812 60.269531 103.140625 60.117188 102.761719 60.117188 L 85.085938 60.117188 C 78.378906 60.117188 77.480469 59.453125 73.171875 56.25 C 72.253906 55.566406 71.210938 54.792969 69.941406 53.894531 C 66.992188 51.808594 63.804688 50.265625 60.445312 49.289062 L 66.382812 39.007812 C 67.398438 37.246094 67.667969 35.1875 67.140625 33.214844 C 66.613281 31.242188 65.351562 29.59375 63.585938 28.574219 L 61.4375 27.335938 C 57.792969 25.230469 53.113281 26.484375 51.007812 30.128906 L 38.957031 51.007812 C 37.445312 51.714844 35.972656 52.550781 34.570312 53.492188 L 27.164062 58.488281 C 24.335938 60.394531 22.398438 62.746094 21.074219 65.886719 L 15.664062 78.722656 C 15.003906 80.285156 15.089844 82.191406 15.902344 83.953125 C 16.625 85.53125 17.863281 86.828125 19.316406 87.578125 L 19.316406 100.289062 C 19.316406 100.800781 19.589844 101.277344 20.035156 101.53125 C 20.253906 101.660156 20.503906 101.726562 20.75 101.726562 C 21 101.726562 21.246094 101.660156 21.46875 101.53125 L 34.355469 94.089844 C 34.574219 93.964844 34.757812 93.785156 34.882812 93.566406 L 36.441406 90.867188 C 36.882812 93.710938 39.347656 95.890625 42.3125 95.890625 C 44.117188 95.890625 45.734375 95.085938 46.828125 93.8125 C 46.925781 93.929688 47.027344 94.039062 47.136719 94.148438 C 48.261719 95.273438 49.753906 95.890625 51.335938 95.890625 C 53.179688 95.890625 54.910156 95.007812 56.023438 93.585938 C 59.136719 95.382812 62.648438 96.578125 67.460938 96.578125 C 67.472656 96.578125 67.488281 96.578125 67.503906 96.578125 L 102.761719 96.554688 C 103.554688 96.554688 104.195312 95.910156 104.195312 95.117188 L 104.195312 61.554688 C 104.195312 61.171875 104.042969 60.808594 103.777344 60.539062 Z M 53.496094 31.566406 C 54.808594 29.289062 57.726562 28.507812 60.003906 29.820312 L 62.152344 31.0625 C 63.25 31.695312 64.039062 32.722656 64.367188 33.957031 C 64.699219 35.1875 64.53125 36.472656 63.898438 37.570312 L 45.734375 69.03125 C 45.644531 68.988281 45.558594 68.941406 45.46875 68.894531 C 42.226562 67.21875 38.871094 65.488281 34.625 64.25 Z M 18.308594 79.839844 L 23.71875 67.003906 C 24.816406 64.398438 26.421875 62.445312 28.765625 60.867188 L 36.128906 55.90625 L 31.496094 63.925781 C 30.46875 64.035156 29.46875 64.359375 28.542969 64.894531 C 26.800781 65.898438 25.554688 67.519531 25.039062 69.449219 C 24.574219 71.171875 24.753906 72.917969 25.429688 74.4375 L 19.691406 84.375 C 19.207031 83.9375 18.796875 83.382812 18.507812 82.753906 C 18.035156 81.722656 17.960938 80.660156 18.308594 79.839844 Z M 22.1875 87.894531 L 30.769531 92.847656 L 22.1875 97.804688 Z M 33.113281 90.890625 L 22.710938 84.882812 L 27.273438 76.980469 C 28.125 77.75 29.160156 78.335938 30.34375 78.652344 C 33.453125 79.53125 36.105469 80.5625 38.429688 81.679688 Z M 42.3125 93.023438 C 40.617188 93.023438 39.238281 91.640625 39.238281 89.945312 L 39.238281 86.019531 L 40.976562 83.007812 C 42.59375 83.917969 44.046875 84.863281 45.390625 85.8125 L 45.390625 89.695312 C 45.390625 89.738281 45.394531 89.78125 45.394531 89.820312 C 45.394531 89.863281 45.390625 89.902344 45.390625 89.945312 C 45.390625 91.640625 44.011719 93.023438 42.3125 93.023438 Z M 51.335938 93.023438 C 50.519531 93.023438 49.75 92.699219 49.164062 92.117188 C 48.582031 91.535156 48.261719 90.761719 48.261719 89.945312 C 48.261719 89.90625 48.257812 89.863281 48.253906 89.824219 C 48.257812 89.78125 48.261719 89.738281 48.261719 89.695312 L 48.261719 87.949219 C 48.753906 88.332031 49.234375 88.710938 49.710938 89.085938 C 51.023438 90.117188 52.292969 91.113281 53.59375 92.023438 C 53.019531 92.644531 52.203125 93.023438 51.335938 93.023438 Z M 67.5 93.710938 C 67.484375 93.710938 67.472656 93.710938 67.460938 93.710938 C 60.25 93.710938 56.378906 90.671875 51.484375 86.828125 C 46.644531 83.027344 41.160156 78.71875 31.113281 75.886719 C 31.105469 75.886719 31.101562 75.882812 31.09375 75.882812 C 29.910156 75.566406 28.910156 74.792969 28.285156 73.710938 C 27.660156 72.628906 27.492188 71.378906 27.808594 70.191406 C 28.128906 69 28.898438 68 29.976562 67.378906 C 31.054688 66.757812 32.300781 66.589844 33.492188 66.90625 C 37.628906 68.074219 40.945312 69.789062 44.152344 71.445312 C 48.910156 73.90625 53.832031 76.449219 61.1875 77.011719 C 61.980469 77.074219 62.667969 76.484375 62.730469 75.691406 C 62.789062 74.902344 62.199219 74.210938 61.410156 74.152344 C 55.992188 73.738281 52.0625 72.183594 48.296875 70.332031 L 58.964844 51.855469 C 62.265625 52.726562 65.398438 54.195312 68.285156 56.238281 C 69.527344 57.117188 70.554688 57.882812 71.460938 58.554688 C 75.691406 61.695312 77.199219 62.8125 83.425781 62.96875 L 83.425781 93.683594 Z M 101.324219 93.683594 L 86.296875 93.683594 L 86.296875 62.988281 L 101.324219 62.988281 Z M 101.324219 93.683594 " fill-opacity="1" fill-rule="nonzero"/></g></svg>